<svg width="60" height="60" xmlns="http://www.w3.org/2000/svg"><g fill="none"><path d="M52.814 37.845L42.068 13.684c-.128-.288-.376-.467-.644-.467-.269 0-.516.179-.644.467l-2.509 5.641c-.193.434-.06.976.295 1.212s.8.074.993-.36l1.865-4.193 5.817 13.08-2.937 3.213c-.302.33-.327.894-.057 1.262a.68.68 0 0 0 .546.297.661.661 0 0 0 .488-.228l2.679-2.93 3.566 8.02c.133.298.385.468.645.468a.628.628 0 0 0 .348-.109c.356-.235.488-.778.295-1.212zm-38.193-4.237a.66.66 0 0 0 .489.228c.2 0 .401-.1.546-.297.27-.368.244-.933-.057-1.262l-2.938-3.213 5.818-13.08 1.865 4.194c.193.434.637.594.993.359.355-.236.487-.778.294-1.212l-2.509-5.64c-.128-.289-.375-.468-.643-.468-.27 0-.516.18-.644.467L7.089 37.845c-.193.434-.061.977.294 1.212.111.074.23.109.349.109.26 0 .512-.17.644-.468l3.567-8.02 2.678 2.93zM30.595 6.52c-.128-.287-.375-.467-.644-.467-.268 0-.515.18-.644.468L9.691 50.627c-.193.434-.061.976.294 1.212a.63.63 0 0 0 .349.108c.26 0 .512-.17.644-.468l10.105-22.718 3.844 4.205c.278.304.7.304.978 0l4.046-4.425 4.046 4.425c.14.152.314.228.49.228a.661.661 0 0 0 .488-.228l3.845-4.205L48.924 51.48c.193.433.638.594.994.359.355-.236.487-.778.294-1.212L30.595 6.521zm3.891 24.58l-4.046-4.425a.638.638 0 0 0-.978 0L25.416 31.1l-3.615-3.954 8.15-18.325 8.15 18.325-3.615 3.954z" fill="#FFF"/><path d="M37.85 39.875c-.431 0-.782.428-.782.954 0 .525.35.953.781.953.431 0 .782-.428.782-.953 0-.526-.35-.954-.782-.954zm-17.042 5.219c-.43 0-.781.428-.781.953 0 .526.35.954.78.954.432 0 .782-.428.782-.954 0-.525-.35-.953-.781-.953zm19.62-2.337c-.43 0-.781.427-.781.953s.35.953.781.953c.431 0 .782-.427.782-.953s-.351-.953-.782-.953z" fill="#000"/></g></svg>