<svg width="35" height="35" xmlns="http://www.w3.org/2000/svg"><path d="M8.125 16.719H5.781a.782.782 0 0 0 0 1.562h2.344a.782.782 0 0 0 0-1.562zM17.5 8.906c.431 0 .781-.35.781-.781V5.781a.782.782 0 0 0-1.562 0v2.344c0 .431.35.781.781.781zm7.516 2.172l1.642-1.641a.774.774 0 1 0-1.095-1.095l-1.641 1.642a.774.774 0 1 0 1.094 1.094zM10.79 23.118l-1.641 1.64a.774.774 0 1 0 1.094 1.095l1.642-1.641a.774.774 0 1 0-1.095-1.095zm-.47-11.695a.78.78 0 1 0 1.104-1.104L9.766 8.66a.78.78 0 1 0-1.104 1.105l1.657 1.657zm7.181 14.67a.782.782 0 0 0-.781.782v2.344a.782.782 0 0 0 1.562 0v-2.344a.782.782 0 0 0-.781-.781zm7.181-2.516a.78.78 0 1 0-1.104 1.104l1.657 1.657a.78.78 0 1 0 1.104-1.104l-1.657-1.657zm4.538-6.858h-2.344a.782.782 0 0 0 0 1.562h2.344a.782.782 0 0 0 0-1.562zM17.5 10.464a7.036 7.036 0 1 0 0 14.072 7.036 7.036 0 0 0 0-14.072zm0 12.503a5.467 5.467 0 1 1 0-10.934 5.467 5.467 0 0 1 0 10.934z" fill="#FFF"/></svg>