<svg width="35" height="35" xmlns="http://www.w3.org/2000/svg"><g fill="none"><path d="M28.903 22.615l-5.607-12.606c-.067-.15-.196-.244-.336-.244s-.269.094-.336.244l-1.309 2.943c-.1.227-.031.51.154.632.186.123.418.04.518-.187l.973-2.188 3.036 6.824-1.533 1.677a.541.541 0 0 0-.03.658c.076.103.18.155.285.155a.35.35 0 0 0 .255-.119l1.397-1.528 1.861 4.184c.07.156.2.244.336.244a.327.327 0 0 0 .182-.057c.186-.123.255-.406.154-.632zM8.976 20.404c.073.08.164.12.255.12.105 0 .21-.053.285-.156a.541.541 0 0 0-.03-.658l-1.532-1.677 3.035-6.824.973 2.188c.1.226.332.31.518.187.186-.122.254-.405.154-.632l-1.31-2.943c-.066-.15-.195-.244-.335-.244s-.27.094-.336.244L5.046 22.615c-.1.226-.032.51.154.632.058.039.12.057.182.057.136 0 .267-.088.336-.244l1.861-4.184 1.397 1.528zM17.31 6.272c-.066-.15-.195-.244-.335-.244s-.27.093-.336.244L6.404 29.284c-.1.226-.032.509.154.632.057.038.12.056.181.056.136 0 .267-.088.337-.244l5.272-11.853 2.005 2.194a.333.333 0 0 0 .51 0l2.111-2.309 2.112 2.31a.343.343 0 0 0 .255.118.35.35 0 0 0 .255-.119l2.006-2.194 5.272 11.854c.1.226.332.31.518.187.185-.123.254-.406.153-.632L17.31 6.272zm2.03 12.824l-2.11-2.31a.333.333 0 0 0-.51 0l-2.112 2.31-1.886-2.063 4.253-9.561 4.252 9.56-1.886 2.064z" fill="#FFF"/><path d="M21.095 23.674c-.224 0-.407.223-.407.498 0 .274.183.497.407.497.225 0 .408-.223.408-.497 0-.275-.183-.498-.408-.498zm-8.891 2.723c-.225 0-.408.223-.408.497 0 .275.183.498.408.498.225 0 .408-.223.408-.498 0-.274-.183-.497-.408-.497zm10.236-1.22c-.224 0-.407.224-.407.498s.183.497.408.497c.225 0 .407-.223.407-.497s-.182-.498-.407-.498z" fill="#000"/></g></svg>