<svg width="60" height="60" xmlns="http://www.w3.org/2000/svg"><path d="M11.25 28.438H6.562a1.563 1.563 0 0 0 0 3.125h4.688a1.563 1.563 0 0 0 0-3.125zM30 12.813c.863 0 1.563-.7 1.563-1.563V6.562a1.563 1.563 0 0 0-3.125 0v4.688c0 .862.7 1.563 1.562 1.563zm15.033 4.343l3.283-3.283a1.548 1.548 0 1 0-2.19-2.189l-3.282 3.283a1.548 1.548 0 1 0 2.189 2.19zM16.578 41.234l-3.283 3.283a1.548 1.548 0 1 0 2.19 2.19l3.282-3.284a1.548 1.548 0 1 0-2.189-2.189zm-.94-23.387a1.562 1.562 0 1 0 2.209-2.21l-3.314-3.315a1.56 1.56 0 0 0-2.21 0c-.61.61-.61 1.6 0 2.21l3.314 3.315zM30 47.187c-.863 0-1.563.7-1.563 1.563v4.688a1.563 1.563 0 0 0 3.125 0V48.75c0-.862-.7-1.563-1.562-1.563zm14.362-5.034a1.56 1.56 0 0 0-2.209 0 1.56 1.56 0 0 0 0 2.21l3.314 3.314a1.562 1.562 0 1 0 2.21-2.21l-3.315-3.314zm9.075-13.715H48.75a1.563 1.563 0 0 0 0 3.125h4.688a1.563 1.563 0 0 0 0-3.125zM30 15.928c-7.772 0-14.072 6.3-14.072 14.072 0 7.772 6.3 14.072 14.072 14.072 7.772 0 14.072-6.3 14.072-14.072 0-7.772-6.3-14.072-14.072-14.072zm0 25.006c-6.04 0-10.934-4.895-10.934-10.934 0-6.04 4.895-10.934 10.934-10.934 6.04 0 10.934 4.895 10.934 10.934 0 6.04-4.895 10.934-10.934 10.934z" fill="#FFF"/></svg>