<svg width="60" height="60" xmlns="http://www.w3.org/2000/svg"><path d="M10.818 35.772c0 .712.674 1.288 1.506 1.288.833 0 1.507-.576 1.507-1.288v-10.07c0-.52-.367-.99-.93-1.19-.563-.199-1.211-.089-1.642.28l-3.818 3.264c-.588.503-.588 1.319 0 1.822.589.503 1.543.503 2.131 0l1.246-1.066v6.96zm8.898-22.309l1.246-1.065v6.96c0 .711.675 1.288 1.507 1.288.832 0 1.506-.577 1.506-1.288V9.288c0-.52-.367-.99-.93-1.19-.562-.2-1.21-.09-1.642.28l-3.817 3.263c-.589.503-.589 1.32 0 1.822.588.503 1.542.503 2.13 0zM36.9 24.513c-.563-.2-1.211-.09-1.642.279l-3.818 3.264c-.588.503-.588 1.319 0 1.822.589.503 1.543.503 2.13 0l1.247-1.066v6.96c0 .712.674 1.288 1.506 1.288s1.507-.576 1.507-1.288v-10.07c0-.52-.367-.99-.93-1.19zm-6.549 15.854c-.563-.2-1.21-.09-1.642.279l-3.818 3.264c-.588.503-.588 1.319 0 1.821.589.504 1.543.504 2.131 0l1.246-1.065v3.813c0 .711.674 1.288 1.507 1.288.832 0 1.506-.577 1.506-1.288v-6.922c0-.522-.367-.991-.93-1.19zm-2.554-7.734v-3.791c0-2.441-2.323-4.427-5.178-4.427h-.074c-2.855 0-5.178 1.986-5.178 4.427v3.791c0 2.441 2.323 4.427 5.178 4.427h.074c2.855 0 5.178-1.986 5.178-4.427zm-3.013 0c0 1.02-.971 1.851-2.165 1.851h-.074c-1.194 0-2.165-.83-2.165-1.85v-3.792c0-1.02.971-1.851 2.165-1.851h.074c1.194 0 2.165.83 2.165 1.85v3.792zm21.946-8.218h-.075c-2.855 0-5.178 1.986-5.178 4.427v3.791c0 2.441 2.323 4.427 5.178 4.427h.075c2.855 0 5.178-1.986 5.178-4.427v-3.791c0-2.441-2.323-4.427-5.178-4.427zm2.164 8.218c0 1.02-.97 1.851-2.164 1.851h-.075c-1.193 0-2.164-.83-2.164-1.85v-3.792c0-1.02.97-1.851 2.164-1.851h.075c1.193 0 2.164.83 2.164 1.85v3.792zM32.763 8h-.074c-2.855 0-5.178 1.986-5.178 4.427v3.792c0 2.44 2.323 4.427 5.178 4.427h.074c.832 0 1.507-.577 1.507-1.288 0-.712-.675-1.289-1.507-1.289h-.074c-1.194 0-2.165-.83-2.165-1.85v-3.792c0-1.02.971-1.85 2.165-1.85h.074c1.194 0 2.165.83 2.165 1.85 0 .712.675 1.288 1.507 1.288.832 0 1.506-.576 1.506-1.288C37.941 9.986 35.62 8 32.763 8zM46.73 8h-.075c-2.855 0-5.178 1.986-5.178 4.427v3.792c0 2.44 2.323 4.427 5.178 4.427h.075c2.855 0 5.178-1.986 5.178-4.427v-3.792C51.908 9.986 49.585 8 46.73 8zm2.164 8.219c0 1.02-.97 1.85-2.164 1.85h-.075c-1.193 0-2.164-.83-2.164-1.85v-3.792c0-1.02.97-1.85 2.164-1.85h.075c1.193 0 2.164.83 2.164 1.85v3.792zM15.578 40.268h-.074c-2.855 0-5.178 1.986-5.178 4.428v3.79c0 2.442 2.323 4.428 5.178 4.428h.074c2.856 0 5.179-1.986 5.179-4.427v-3.791c0-2.441-2.323-4.428-5.179-4.428zm2.165 8.22c0 1.02-.97 1.85-2.164 1.85h-.074c-1.194 0-2.165-.83-2.165-1.85v-3.792c0-1.021.97-1.851 2.165-1.851h.074c1.193 0 2.164.83 2.164 1.85v3.792z" fill="#FFF"/></svg>