<svg width="35" height="35" xmlns="http://www.w3.org/2000/svg"><path d="M7.036 20.812c0 .38.36.687.804.687.443 0 .803-.308.803-.687v-5.37c0-.278-.195-.529-.496-.635a.906.906 0 0 0-.875.149l-2.037 1.74a.619.619 0 0 0 0 .972.903.903 0 0 0 1.137 0l.664-.568v3.712zm4.746-11.898l.664-.568v3.711c0 .38.36.687.804.687.444 0 .804-.307.804-.687v-5.37c0-.278-.196-.528-.497-.635a.906.906 0 0 0-.875.15l-2.036 1.74a.619.619 0 0 0 0 .972.903.903 0 0 0 1.136 0zm9.165 5.893a.906.906 0 0 0-.876.149l-2.036 1.74a.619.619 0 0 0 0 .972.903.903 0 0 0 1.136 0l.665-.568v3.712c0 .38.36.687.803.687.444 0 .804-.308.804-.687v-5.37c0-.278-.196-.529-.496-.635zm-3.493 8.455a.906.906 0 0 0-.876.15l-2.036 1.74a.619.619 0 0 0 0 .971.903.903 0 0 0 1.136 0l.665-.568v2.034c0 .38.36.687.803.687.444 0 .804-.308.804-.687v-3.692c0-.278-.196-.529-.496-.635zm-1.362-4.124v-2.022c0-1.302-1.24-2.361-2.762-2.361h-.04c-1.522 0-2.761 1.059-2.761 2.36v2.023c0 1.302 1.239 2.36 2.762 2.36h.04c1.522 0 2.76-1.058 2.76-2.36zm-1.607 0c0 .544-.518.987-1.155.987h-.04c-.636 0-1.154-.443-1.154-.987v-2.022c0-.545.518-.987 1.155-.987h.04c.636 0 1.154.442 1.154.987v2.022zm11.705-4.384h-.04c-1.523 0-2.762 1.06-2.762 2.362v2.022c0 1.302 1.239 2.36 2.762 2.36h.04c1.522 0 2.76-1.058 2.76-2.36v-2.022c0-1.302-1.238-2.362-2.76-2.362zm1.154 4.384c0 .544-.518.987-1.155.987h-.04c-.636 0-1.154-.443-1.154-.987v-2.022c0-.545.518-.987 1.155-.987h.04c.636 0 1.154.442 1.154.987v2.022zM18.74 6h-.04c-1.522 0-2.76 1.06-2.76 2.361v2.022c0 1.302 1.238 2.361 2.76 2.361h.04c.444 0 .804-.307.804-.687 0-.38-.36-.687-.804-.687h-.04c-.636 0-1.154-.442-1.154-.987V8.361c0-.544.518-.987 1.155-.987h.04c.636 0 1.154.443 1.154.987 0 .38.36.687.804.687.443 0 .803-.307.803-.687C21.502 7.06 20.263 6 18.74 6zm7.45 0h-.04c-1.523 0-2.762 1.06-2.762 2.361v2.022c0 1.302 1.239 2.361 2.762 2.361h.04c1.522 0 2.76-1.059 2.76-2.36V8.36c0-1.3-1.237-2.36-2.76-2.36zm1.154 4.383c0 .545-.518.987-1.155.987h-.04c-.636 0-1.154-.442-1.154-.987V8.361c0-.544.518-.987 1.155-.987h.04c.636 0 1.154.443 1.154.987v2.022zM9.575 23.21h-.04c-1.522 0-2.761 1.059-2.761 2.361v2.022c0 1.302 1.239 2.361 2.762 2.361h.04c1.522 0 2.76-1.059 2.76-2.361v-2.022c.001-1.302-1.238-2.361-2.76-2.361zm1.155 4.383c0 .544-.518.987-1.155.987h-.04c-.636 0-1.154-.443-1.154-.987v-2.022c0-.544.518-.987 1.155-.987h.04c.636 0 1.154.443 1.154.987v2.022z" fill="#FFF"/></svg>