<svg xmlns="http://www.w3.org/2000/svg" xmlns:xlink="http://www.w3.org/1999/xlink" width="95" height="20.001" viewBox="0 0 25.135 5.292"><defs><linearGradient xlink:href="#a" id="b" gradientUnits="userSpaceOnUse" gradientTransform="matrix(.51307 0 0 .10802 -142.592 139.384)" x1="0" y1="0" x2="0" y2="48.99"/><linearGradient id="a" x2="0" y2="48.99" gradientTransform="scale(1.93918 .40825)" x1="0" y1="0" gradientUnits="userSpaceOnUse"><stop offset="0" stop-color="#bbb" stop-opacity=".1"/><stop offset="1" stop-opacity=".1"/></linearGradient></defs><g transform="translate(142.592 -139.384)"><rect x="-142.592" y="139.384" width="25.135" height="5.292" rx="1.058" ry="1.058" fill="#555"/><g font-size="12" font-family="'DejaVu Sans',Verdana,Geneva,sans-serif" fill="#fff"><text y="15" x="5" fill="#010101" fill-opacity=".3" transform="translate(-135.102 139.285) scale(.26458)">Bikolabs</text><text y="14" x="5" transform="translate(-135.102 139.285) scale(.26458)">Bikolabs</text></g><path d="M-142.592 139.384h25.136v5.292h-25.136z" fill="url(#b)"/><g fill="#d40000"><rect width="1.436" height="5.286" x="-137.46" y="139.384" ry="0" rx="0"/><path d="M-141.533 139.384c-.586 0-1.058.472-1.058 1.058v3.175c0 .587.472 1.059 1.058 1.059h4.914v-5.183c0-.037.007-.073.011-.109z"/></g><g fill-rule="evenodd"><path d="M-139.852 140.902c.2-.077.409-.123.617-.133.434-.02.69.123.955.281.284.17.505.398.635.66l.051-.003-.013-.272a.054.054 0 1 1 .109-.005l.012.272.11-.006c.02 0 .036.014.037.034l.042.907a.034.034 0 0 1-.033.037l-.258.012c-.07.249-.169.473-.359.633a2.21 2.21 0 0 1-.62.378c-.03.18-.067.324-.11.434-.067.168-.14.236-.22.203a.146.146 0 0 1-.06-.048 13.755 13.755 0 0 1-.187-.321.966.966 0 0 1-.032.009 1.19 1.19 0 0 1-.014.037c-.066.167-.14.235-.22.202a.146.146 0 0 1-.06-.048 5.836 5.836 0 0 1-.096-.164.956.956 0 0 1-.078-.01 1.2 1.2 0 0 1-.016.042c-.066.168-.14.235-.22.203a.146.146 0 0 1-.06-.049 10.75 10.75 0 0 1-.154-.265c-.66-.034-1.18-.27-1.213-.77-.004-.062-.02-.173-.03-.288l-.221.01a.035.035 0 0 1-.037-.033l-.043-.908c0-.019.014-.035.034-.036l.125-.006-.013-.276a.054.054 0 1 1 .108-.005l.013.276.082-.004c.074-.604.171-1.083.292-1.437.162-.473.343-.663.542-.57a.385.385 0 0 1 .15.138c.03.053.182.35.453.889zm1.184 1.871c.306-.014.567-.244.481-.53-.086-.286-.198-.535-.39-.526-.192.01-.601.43-.7.723-.1.292.302.348.609.333zm-1.467.07c.307-.015.701-.108.575-.39-.126-.282-.573-.662-.765-.653-.192.009-.28.267-.34.56-.058.293.224.497.53.483z" fill="#010101" fill-opacity=".302"/><path d="M-139.827 140.701c.2-.076.409-.123.617-.133.434-.02.69.124.955.282.285.17.505.398.635.659l.051-.003-.013-.271a.054.054 0 1 1 .109-.005l.012.271.11-.005c.02 0 .036.014.037.033l.043.908a.035.035 0 0 1-.034.036l-.258.012c-.07.25-.169.474-.359.633a2.21 2.21 0 0 1-.62.379 2.24 2.24 0 0 1-.11.434c-.067.168-.14.235-.22.203a.146.146 0 0 1-.06-.049 13.755 13.755 0 0 1-.186-.32.966.966 0 0 1-.033.008 1.19 1.19 0 0 1-.014.037c-.066.168-.14.236-.22.203a.146.146 0 0 1-.06-.049 5.836 5.836 0 0 1-.096-.163.956.956 0 0 1-.078-.01 1.2 1.2 0 0 1-.016.041c-.066.168-.14.236-.22.203a.146.146 0 0 1-.06-.048 10.75 10.75 0 0 1-.154-.266c-.66-.034-1.18-.27-1.213-.77-.004-.062-.02-.173-.03-.288l-.221.01a.035.035 0 0 1-.037-.033l-.043-.907c0-.02.014-.036.034-.037l.125-.006-.013-.275a.054.054 0 1 1 .108-.005l.013.275.082-.004c.074-.603.171-1.082.292-1.436.162-.474.343-.664.542-.57a.385.385 0 0 1 .15.138c.03.053.182.349.453.888zm1.184 1.872c.306-.015.567-.245.481-.53-.085-.287-.198-.535-.39-.526-.192.009-.601.43-.7.722-.1.292.302.348.609.334zm-1.467.07c.307-.015.701-.109.575-.39-.126-.282-.573-.663-.765-.654-.192.01-.28.268-.34.56-.058.294.224.498.53.483z" fill="#fff"/></g></g></svg>