<svg width="60" height="60" xmlns="http://www.w3.org/2000/svg"><path d="M49.1 32.175a1.308 1.308 0 0 0-1.585.452 14.55 14.55 0 0 1-5.762 4.72 14.584 14.584 0 0 1-7.708 1.188c-6.572-.76-11.894-6.082-12.654-12.655a14.581 14.581 0 0 1 1.189-7.707 14.551 14.551 0 0 1 4.72-5.762c.51-.37.691-1.006.451-1.585a1.318 1.318 0 0 0-1.45-.808 20.544 20.544 0 0 0-12.726 7.383 20.563 20.563 0 0 0-4.533 14.285c.315 4.947 2.448 9.632 6.007 13.19 3.559 3.56 8.243 5.693 13.191 6.008.445.028.89.042 1.332.042 4.722 0 9.278-1.6 12.953-4.575a20.543 20.543 0 0 0 7.383-12.725c.1-.627-.224-1.21-.808-1.451zm-.465 1.246a19.256 19.256 0 0 1-6.921 11.928 19.272 19.272 0 0 1-13.392 4.248c-4.635-.295-9.025-2.295-12.361-5.632-3.337-3.337-5.337-7.727-5.632-12.361a19.277 19.277 0 0 1 4.248-13.392 19.256 19.256 0 0 1 11.948-6.923c.015 0 .019.005.023.01.015.017.019.04.017.047 0 .001-.007.01-.021.02a15.84 15.84 0 0 0-5.138 6.274 15.87 15.87 0 0 0-1.296 8.389c.828 7.16 6.626 12.959 13.787 13.787a15.87 15.87 0 0 0 8.39-1.296 15.843 15.843 0 0 0 6.274-5.138.077.077 0 0 1 .02-.02c.005-.003.029 0 .046.016.007.006.013.011.008.043z" fill="#FFF"/></svg>