<svg width="22" height="22" xmlns="http://www.w3.org/2000/svg"><path d="M21.517 11.899a.702.702 0 0 0-.85.242 7.808 7.808 0 0 1-3.092 2.533 7.826 7.826 0 0 1-4.136.637c-3.527-.407-6.382-3.263-6.79-6.79a7.824 7.824 0 0 1 .638-4.135 7.808 7.808 0 0 1 2.532-3.093.702.702 0 0 0 .243-.85.707.707 0 0 0-.779-.433 11.023 11.023 0 0 0-6.828 3.96 11.034 11.034 0 0 0-2.432 7.665 11.006 11.006 0 0 0 3.223 7.078 11.006 11.006 0 0 0 7.793 3.246 11.02 11.02 0 0 0 6.95-2.455 11.023 11.023 0 0 0 3.962-6.828.707.707 0 0 0-.434-.778zm-.25.669a10.333 10.333 0 0 1-3.713 6.4 10.341 10.341 0 0 1-7.186 2.28 10.315 10.315 0 0 1-6.633-3.023 10.315 10.315 0 0 1-3.022-6.633 10.344 10.344 0 0 1 2.28-7.186A10.333 10.333 0 0 1 9.403.692c.008 0 .01.002.013.005.008.01.01.022.01.025A8.5 8.5 0 0 0 6.657 4.1a8.516 8.516 0 0 0-.696 4.502c.444 3.842 3.555 6.953 7.397 7.398a8.515 8.515 0 0 0 4.502-.695 8.501 8.501 0 0 0 3.377-2.769c.003-.001.016.001.025.01.004.003.007.005.005.023z" fill="#6647FF"/></svg>