<?xml version="1.0" encoding="UTF-8"?>
<svg width="46px" height="46px" viewBox="0 0 46 46" version="1.1" xmlns="http://www.w3.org/2000/svg" xmlns:xlink="http://www.w3.org/1999/xlink">
    <!-- Generator: Sketch 53.2 (72643) - https://sketchapp.com -->
    <title>icon-mountain</title>
    <desc>Created with Sketch.</desc>
    <g id="Page-1" stroke="none" stroke-width="1" fill="none" fill-rule="evenodd">
        <g id="icon-mountain" fill-rule="nonzero">
            <path d="M45.8137537,31.8453472 L35.067724,7.68402591 C34.9395881,7.39598964 34.6924968,7.21663731 34.4239193,7.21663731 C34.1553418,7.21663731 33.9082505,7.39598964 33.7801146,7.68414508 L31.2713079,13.3251036 C31.0783227,13.7590052 31.2101699,14.3014715 31.5657665,14.5369534 C31.9214607,14.7725544 32.3659321,14.6114352 32.5589172,14.1776528 L34.424017,9.98414508 L40.2414055,23.0638756 L37.3035584,26.2768446 C37.0023609,26.6063523 36.9769682,27.171342 37.2470106,27.5389845 C37.3916518,27.7359741 37.5917665,27.8361969 37.7927601,27.8361969 C37.9667983,27.8361969 38.1415202,27.7608808 38.2813758,27.6079845 L40.9597282,24.6787617 L44.5263397,32.6980155 C44.6589682,32.9964197 44.910845,33.1656425 45.170828,33.1656425 C45.2888068,33.1656425 45.4085435,33.1307254 45.5194904,33.0571969 C45.8748917,32.8218342 46.0067389,32.2791295 45.8137537,31.8453472 Z" id="Path" fill="#64FF4D"></path>
            <path d="M7.62135032,27.6079845 C7.76120594,27.761 7.93592781,27.8361969 8.10996603,27.8361969 C8.310862,27.8361969 8.51097665,27.7358549 8.65561783,27.5389845 C8.9256603,27.1714611 8.90026752,26.6063523 8.59907006,26.2768446 L5.66122293,23.0638756 L11.4786115,9.98414508 L13.3437113,14.1776528 C13.5365987,14.6115544 13.9810701,14.7723161 14.336862,14.5369534 C14.6923609,14.3014715 14.8242081,13.758886 14.6312229,13.3251036 L12.1223185,7.68414508 C11.9941826,7.39610881 11.747189,7.21675648 11.4785138,7.21675648 C11.2098386,7.21675648 10.962845,7.39610881 10.8347091,7.68414508 L0.0888747346,31.8454663 C-0.104110403,32.2792487 0.0277367304,32.8218342 0.383235669,33.0573161 C0.494280255,33.1308446 0.613919321,33.1657617 0.731995754,33.1657617 C0.991978769,33.1657617 1.24375796,32.9965389 1.37648408,32.6981347 L4.94309554,24.6788808 L7.62135032,27.6079845 Z" id="Path" fill="#64FF4D"></path>
            <path d="M23.5950701,0.520658031 C23.4669342,0.232621762 23.2198429,0.0532694301 22.9512654,0.0532694301 C22.6826879,0.0532694301 22.4355966,0.232621762 22.3074607,0.520658031 L2.6908535,44.6267927 C2.49786837,45.0606943 2.6297155,45.6032798 2.98521444,45.8386425 C3.09625902,45.912171 3.21589809,45.9470881 3.33397452,45.9470881 C3.59395754,45.9470881 3.84573673,45.7778653 3.97846285,45.4794611 L14.0827389,22.760943 L17.9272059,26.9658912 C18.2054522,27.2702539 18.6267771,27.2701347 18.9050234,26.9658912 L22.9508747,22.5405959 L26.9973121,26.9660104 C27.1364841,27.1181917 27.3113036,27.1942228 27.4862208,27.1942228 C27.661138,27.1942228 27.8359575,27.1181917 27.9751295,26.9660104 L31.8199873,22.7610622 L41.9243609,45.4796995 C42.1173461,45.9134819 42.5618174,46.0743627 42.9175117,45.8388808 C43.2731083,45.603399 43.4048577,45.0608135 43.2119703,44.6270311 L23.5950701,0.520658031 Z M27.4861231,25.1000311 L23.4395881,20.6746166 C23.1614395,20.3702539 22.7401146,20.3703731 22.4617707,20.6746166 L18.416017,25.0999119 L14.8009639,21.1459378 L22.9512654,2.8207772 L31.1015669,21.1459378 L27.4861231,25.1000311 Z" id="Shape" fill="#64FF4D"></path>
            <path d="M30.849397,33.8754249 C30.4185987,33.8754249 30.0680807,34.3031295 30.0680807,34.8287927 C30.0680807,35.354456 30.4185987,35.7821606 30.849397,35.7821606 C31.2801953,35.7821606 31.6307134,35.354456 31.6307134,34.8287927 C31.6307134,34.3031295 31.280293,33.8754249 30.849397,33.8754249 Z" id="Path" fill="#000000"></path>
            <path d="M13.8079108,39.0940415 C13.3771125,39.0940415 13.0265945,39.5217461 13.0265945,40.0474093 C13.0265945,40.5730725 13.3771125,41.0007772 13.8079108,41.0007772 C14.2387091,41.0007772 14.5892272,40.5730725 14.5892272,40.0474093 C14.5892272,39.5217461 14.2387091,39.0940415 13.8079108,39.0940415 Z" id="Path" fill="#000000"></path>
            <path d="M33.4282293,36.7566218 C32.997431,36.7566218 32.646913,37.1843264 32.646913,37.7099896 C32.646913,38.2356528 32.997431,38.6633575 33.4282293,38.6633575 C33.8590276,38.6633575 34.2095456,38.2356528 34.2095456,37.7099896 C34.2095456,37.1843264 33.8590276,36.7566218 33.4282293,36.7566218 Z" id="Path" fill="#000000"></path>
        </g>
    </g>
</svg>