<?xml version="1.0" encoding="UTF-8" standalone="no"?>
<!-- Created with Inkscape (http://www.inkscape.org/) -->

<svg
   xmlns:dc="http://purl.org/dc/elements/1.1/"
   xmlns:cc="http://creativecommons.org/ns#"
   xmlns:rdf="http://www.w3.org/1999/02/22-rdf-syntax-ns#"
   xmlns:svg="http://www.w3.org/2000/svg"
   xmlns="http://www.w3.org/2000/svg"
   xmlns:xlink="http://www.w3.org/1999/xlink"
   xmlns:sodipodi="http://sodipodi.sourceforge.net/DTD/sodipodi-0.dtd"
   xmlns:inkscape="http://www.inkscape.org/namespaces/inkscape"
   width="25.135422mm"
   height="5.2918553mm"
   viewBox="0 0 25.135422 5.2918553"
   version="1.1"
   id="svg4813"
   inkscape:version="0.92.1 r15371"
   sodipodi:docname="bikolabs-bagge-pill.svg">
  <defs
     id="defs4807">
    <linearGradient
       inkscape:collect="always"
       xlink:href="#linearGradient4611"
       id="linearGradient4625-3-3"
       gradientUnits="userSpaceOnUse"
       gradientTransform="matrix(0.51307454,0,0,0.10801569,-142.59152,139.38392)"
       x1="0"
       y1="0"
       x2="0"
       y2="48.989796" />
    <linearGradient
       id="linearGradient4611"
       x2="0"
       y2="48.989796"
       gradientTransform="scale(1.9391794,0.40824829)"
       x1="0"
       y1="0"
       gradientUnits="userSpaceOnUse">
      <stop
         offset="0"
         stop-color="#bbb"
         stop-opacity=".1"
         id="stop2-3" />
      <stop
         offset="1"
         stop-opacity=".1"
         id="stop4-7" />
    </linearGradient>
  </defs>
  <sodipodi:namedview
     id="base"
     pagecolor="#ffffff"
     bordercolor="#666666"
     borderopacity="1.0"
     inkscape:pageopacity="0.0"
     inkscape:pageshadow="2"
     inkscape:zoom="7.9195959"
     inkscape:cx="63.328909"
     inkscape:cy="23.270621"
     inkscape:document-units="mm"
     inkscape:current-layer="layer1"
     showgrid="false"
     fit-margin-top="0"
     fit-margin-left="0"
     fit-margin-right="0"
     fit-margin-bottom="0"
     inkscape:window-width="1920"
     inkscape:window-height="1017"
     inkscape:window-x="-8"
     inkscape:window-y="-8"
     inkscape:window-maximized="1" />
  <metadata
     id="metadata4810">
    <rdf:RDF>
      <cc:Work
         rdf:about="">
        <dc:format>image/svg+xml</dc:format>
        <dc:type
           rdf:resource="http://purl.org/dc/dcmitype/StillImage" />
        <dc:title></dc:title>
      </cc:Work>
    </rdf:RDF>
  </metadata>
  <g
     inkscape:label="Capa 1"
     inkscape:groupmode="layer"
     id="layer1"
     transform="translate(142.59152,-139.38383)">
    <rect
       x="-142.59152"
       y="139.38393"
       width="25.135416"
       height="5.2916665"
       rx="1.0583333"
       ry="1.0583333"
       style="fill:#555555;stroke-width:0.26458332"
       id="rect7-2-7-7" />
    <g
       style="font-size:12px;font-family:'DejaVu Sans', Verdana, Geneva, sans-serif;fill:#ffffff"
       id="g21-7-3-1"
       font-size="12"
       transform="matrix(0.26458333,0,0,0.26458333,-135.10244,139.2847)">
      <text
         style="fill:#010101;fill-opacity:0.3"
         id="text17-5-0-7"
         y="15"
         x="5">Bikolabs</text>
      <text
         id="text19-3-5-8"
         y="14"
         x="5">Bikolabs</text>
    </g>
    <g
       id="g5412">
      <path
         inkscape:connector-curvature="0"
         style="fill:url(#linearGradient4625-3-3);stroke-width:0.23541474"
         id="path13-4-3-0"
         d="m -142.59152,139.38392 h 25.13542 v 5.29167 h -25.13542 z" />
      <g
         id="g5398">
        <rect
           style="fill:#d40000;fill-opacity:1;stroke:none;stroke-width:0.23065521"
           id="rect4642-7-9"
           width="1.4360305"
           height="5.2862854"
           x="-137.45993"
           y="139.38383"
           ry="0"
           rx="0" />
        <path
           inkscape:connector-curvature="0"
           style="fill:#d40000;fill-opacity:1;stroke-width:0.26458332"
           d="m -141.53307,139.38403 c -0.58632,0 -1.05834,0.47201 -1.05834,1.05833 v 3.175 c 0,0.58632 0.47202,1.05833 1.05834,1.05833 h 4.91443 v -5.18263 c 0,-0.0374 0.007,-0.0727 0.0108,-0.10903 z"
           id="rect7-2-7-7-5" />
      </g>
    </g>
    <g
       id="g5406">
      <g
         transform="matrix(0.00580823,-2.7513492e-4,2.7513492e-4,0.00580823,-145.20083,139.21634)"
         style="fill:#010101;fill-opacity:0.30196078;fill-rule:evenodd;stroke:none;stroke-width:1"
         id="Page-1-3-6-6">
        <g
           style="fill:#010101;fill-opacity:0.30196078"
           id="logo-white-8-8-4">
          <path
             inkscape:connector-curvature="0"
             d="m 905.19505,333.06652 c 35.00526,-11.50544 71.14568,-17.81955 107.04415,-17.81955 74.6219,0 117.5191,26.80197 161.6807,56.08233 47.5297,31.51345 83.5974,72.50176 103.7487,118.39602 h 8.802 v -46.73527 c 0,-5.16224 4.1762,-9.34706 9.3277,-9.34706 5.1516,0 9.3278,4.18482 9.3278,9.34706 v 46.73527 H 1324 c 3.3137,0 6,2.68629 6,6 v 156.24697 c 0,3.31371 -2.6863,6 -6,6 h -44.4634 c -14.1113,42.1319 -32.884,79.89546 -66.8188,105.76278 -35.5473,27.09647 -70.0557,46.3605 -109.7316,59.97833 -6.5154,30.51808 -13.9783,55.08832 -22.3886,73.71072 -12.7691,28.27373 -25.9302,39.28342 -39.4833,33.02907 -4.567,-2.5029 -7.8572,-5.43882 -9.8709,-8.80775 -2.0029,-3.35102 -11.7796,-22.24983 -29.3302,-56.69643 -1.8876,0.4747 -3.78464,0.9167 -5.68982,1.32519 -0.88389,2.14381 -1.77877,4.21863 -2.68465,6.22444 -12.7691,28.27373 -25.9302,39.28342 -39.48329,33.02907 -4.56692,-2.5029 -7.85719,-5.43881 -9.87083,-8.80775 -1.37561,-2.3015 -6.41817,-11.93693 -15.12765,-28.9063 -4.64199,-0.61623 -9.1121,-1.38317 -13.38151,-2.31439 -0.9879,2.41968 -1.98959,4.75281 -3.00509,6.99937 -12.78038,28.27373 -25.9531,39.28342 -39.51816,33.02907 -4.57095,-2.5029 -7.86413,-5.43881 -9.87954,-8.80775 -1.80554,-3.01812 -9.92263,-18.64832 -24.35128,-46.89063 -112.9936,-11.1472 -200.44838,-55.86584 -202.07734,-142.00608 -0.20446,-10.81222 -1.91962,-30.00258 -2.79901,-49.85096 H 596 c -3.31371,0 -6,-2.68629 -6,-6 V 495.72532 c 0,-3.31371 2.68629,-6 6,-6 v 0 h 21.59322 v -47.41216 c 0,-5.16224 4.17617,-9.34706 9.32773,-9.34706 5.15156,0 9.32773,4.18482 9.32773,9.34706 v 47.41216 h 14.10298 c 17.58992,-103.13629 38.19928,-184.60591 61.8281,-244.40885 31.62595,-80.04318 64.22279,-111.21171 97.79049,-93.50559 11.31115,7.08572 19.46036,15.39733 24.44763,24.93482 4.88928,9.35009 28.48167,61.45703 70.77717,156.32082 z m 188.05055,331.13714 c 52.7684,0 99.4958,-37.38822 87.0589,-87.23917 -12.437,-49.85096 -29.7988,-93.47054 -62.8611,-93.47054 -33.0623,0 -106.719,68.97584 -126.10046,118.39601 -19.38146,49.42017 49.13436,62.3137 101.90266,62.3137 z m -252.47881,0 c 52.76838,0 121.28415,-12.89353 101.90268,-62.3137 -19.38146,-49.42017 -93.0381,-118.39601 -126.10043,-118.39601 -33.06232,0 -50.4241,43.61958 -62.86107,93.47054 -12.43697,49.85095 34.29045,87.23917 87.05882,87.23917 z"
             id="Combined-Shape-Copy-3-2-5"
             style="fill:#010101;fill-opacity:0.30196078" />
        </g>
      </g>
      <g
         transform="matrix(0.00580823,-2.7513492e-4,2.7513492e-4,0.00580823,-145.17577,139.01589)"
         style="fill:#ffffff;fill-opacity:1;fill-rule:evenodd;stroke:none;stroke-width:1"
         id="Page-1-6-3-1-5">
        <g
           style="fill:#ffffff;fill-opacity:1"
           id="logo-white-2-2-2-5">
          <path
             inkscape:connector-curvature="0"
             d="m 905.19505,333.06652 c 35.00526,-11.50544 71.14568,-17.81955 107.04415,-17.81955 74.6219,0 117.5191,26.80197 161.6807,56.08233 47.5297,31.51345 83.5974,72.50176 103.7487,118.39602 h 8.802 v -46.73527 c 0,-5.16224 4.1762,-9.34706 9.3277,-9.34706 5.1516,0 9.3278,4.18482 9.3278,9.34706 v 46.73527 H 1324 c 3.3137,0 6,2.68629 6,6 v 156.24697 c 0,3.31371 -2.6863,6 -6,6 h -44.4634 c -14.1113,42.1319 -32.884,79.89546 -66.8188,105.76278 -35.5473,27.09647 -70.0557,46.3605 -109.7316,59.97833 -6.5154,30.51808 -13.9783,55.08832 -22.3886,73.71072 -12.7691,28.27373 -25.9302,39.28342 -39.4833,33.02907 -4.567,-2.5029 -7.8572,-5.43882 -9.8709,-8.80775 -2.0029,-3.35102 -11.7796,-22.24983 -29.3302,-56.69643 -1.8876,0.4747 -3.78464,0.9167 -5.68982,1.32519 -0.88389,2.14381 -1.77877,4.21863 -2.68465,6.22444 -12.7691,28.27373 -25.9302,39.28342 -39.48329,33.02907 -4.56692,-2.5029 -7.85719,-5.43881 -9.87083,-8.80775 -1.37561,-2.3015 -6.41817,-11.93693 -15.12765,-28.9063 -4.64199,-0.61623 -9.1121,-1.38317 -13.38151,-2.31439 -0.9879,2.41968 -1.98959,4.75281 -3.00509,6.99937 -12.78038,28.27373 -25.9531,39.28342 -39.51816,33.02907 -4.57095,-2.5029 -7.86413,-5.43881 -9.87954,-8.80775 -1.80554,-3.01812 -9.92263,-18.64832 -24.35128,-46.89063 -112.9936,-11.1472 -200.44838,-55.86584 -202.07734,-142.00608 -0.20446,-10.81222 -1.91962,-30.00258 -2.79901,-49.85096 H 596 c -3.31371,0 -6,-2.68629 -6,-6 V 495.72532 c 0,-3.31371 2.68629,-6 6,-6 v 0 h 21.59322 v -47.41216 c 0,-5.16224 4.17617,-9.34706 9.32773,-9.34706 5.15156,0 9.32773,4.18482 9.32773,9.34706 v 47.41216 h 14.10298 c 17.58992,-103.13629 38.19928,-184.60591 61.8281,-244.40885 31.62595,-80.04318 64.22279,-111.21171 97.79049,-93.50559 11.31115,7.08572 19.46036,15.39733 24.44763,24.93482 4.88928,9.35009 28.48167,61.45703 70.77717,156.32082 z m 188.05055,331.13714 c 52.7684,0 99.4958,-37.38822 87.0589,-87.23917 -12.437,-49.85096 -29.7988,-93.47054 -62.8611,-93.47054 -33.0623,0 -106.719,68.97584 -126.10046,118.39601 -19.38146,49.42017 49.13436,62.3137 101.90266,62.3137 z m -252.47881,0 c 52.76838,0 121.28415,-12.89353 101.90268,-62.3137 -19.38146,-49.42017 -93.0381,-118.39601 -126.10043,-118.39601 -33.06232,0 -50.4241,43.61958 -62.86107,93.47054 -12.43697,49.85095 34.29045,87.23917 87.05882,87.23917 z"
             id="Combined-Shape-Copy-1-2-0-9"
             style="fill:#ffffff;fill-opacity:1" />
        </g>
      </g>
    </g>
  </g>
</svg>
