<?xml version="1.0" encoding="UTF-8"?>
<svg width="35px" height="35px" viewBox="0 0 35 35" version="1.1" xmlns="http://www.w3.org/2000/svg" xmlns:xlink="http://www.w3.org/1999/xlink">
    <!-- Generator: Sketch 53.2 (72643) - https://sketchapp.com -->
    <title>Artboard</title>
    <desc>Created with Sketch.</desc>
    <g id="Artboard" stroke="none" stroke-width="1" fill="none" fill-rule="evenodd">
        <g id="sun-day-weather-symbol-(1)" transform="translate(5.000000, 5.000000)" fill="#FFFFFF" fill-rule="nonzero">
            <path d="M3.125,11.71875 L0.78125,11.71875 C0.35,11.71875 0,12.06875 0,12.5 C0,12.93125 0.35,13.28125 0.78125,13.28125 L3.125,13.28125 C3.55625,13.28125 3.90625,12.93125 3.90625,12.5 C3.90625,12.06875 3.55625,11.71875 3.125,11.71875 Z M12.5,3.90625 C12.93125,3.90625 13.28125,3.55625 13.28125,3.125 L13.28125,0.78125 C13.28125,0.35 12.93125,0 12.5,0 C12.06875,0 11.71875,0.35 11.71875,0.78125 L11.71875,3.125 C11.71875,3.55625 12.06875,3.90625 12.5,3.90625 Z M20.0164216,6.07810458 L21.6578431,4.43668301 C21.9601716,4.13435458 21.9601716,3.64448529 21.6578431,3.34215686 C21.3555147,3.03982843 20.8656046,3.03982843 20.5632761,3.34215686 L18.9218546,4.98357843 C18.6195261,5.28590686 18.6195261,5.77577614 18.9218546,6.07810458 C19.2242239,6.38047386 19.7140931,6.38047386 20.0164216,6.07810458 Z M5.78905229,18.1171977 L4.14763072,19.7586193 C3.84530229,20.0609477 3.84530229,20.550817 4.14763072,20.8531454 C4.44995915,21.1554739 4.93982843,21.1554739 5.24215686,20.8531454 L6.88357843,19.2117239 C7.18590686,18.9093954 7.18590686,18.4195261 6.88357843,18.1171977 C6.58125,17.8148693 6.09142157,17.8148284 5.78905229,18.1171977 Z M5.31875,6.42344771 C5.62422386,6.72892157 6.11875,6.72892157 6.42340686,6.42344771 C6.72810458,6.11797386 6.72810458,5.62344771 6.42340686,5.31879085 L4.76642157,3.66094771 C4.46094771,3.35547386 3.96642157,3.35547386 3.66172386,3.66094771 C3.35625,3.96642157 3.35625,4.46094771 3.66172386,4.76564542 L5.31875,6.42344771 Z M12.5,21.09375 C12.06875,21.09375 11.71875,21.44375 11.71875,21.875 L11.71875,24.21875 C11.71875,24.65 12.06875,25 12.5,25 C12.93125,25 13.28125,24.65 13.28125,24.21875 L13.28125,21.875 C13.28125,21.44375 12.93125,21.09375 12.5,21.09375 Z M19.68125,18.5765523 C19.3757761,18.2710784 18.88125,18.2710784 18.5765523,18.5765523 C18.2710784,18.882067 18.2710784,19.3765523 18.5765523,19.68125 L20.2335784,21.3382761 C20.5390523,21.64375 21.0335784,21.64375 21.3382761,21.3382761 C21.6429739,21.0327614 21.64375,20.5382761 21.3382761,20.2335784 L19.68125,18.5765523 Z M24.21875,11.71875 L21.875,11.71875 C21.44375,11.71875 21.09375,12.06875 21.09375,12.5 C21.09375,12.93125 21.44375,13.28125 21.875,13.28125 L24.21875,13.28125 C24.65,13.28125 25,12.93125 25,12.5 C25,12.06875 24.65,11.71875 24.21875,11.71875 Z M12.5,5.46405229 C8.61405229,5.46405229 5.46405229,8.61405229 5.46405229,12.5 C5.46405229,16.3859477 8.61405229,19.5359477 12.5,19.5359477 C16.3859477,19.5359477 19.5359477,16.3859477 19.5359477,12.5 C19.5359477,8.61405229 16.3859477,5.46405229 12.5,5.46405229 Z M12.5,17.9671977 C9.48047386,17.9671977 7.03280229,15.5195261 7.03280229,12.5 C7.03280229,9.48047386 9.48047386,7.03280229 12.5,7.03280229 C15.5195261,7.03280229 17.9671977,9.48047386 17.9671977,12.5 C17.9671977,15.5195261 15.5195261,17.9671977 12.5,17.9671977 Z" id="Shape"></path>
        </g>
    </g>
</svg>