<?xml version="1.0" encoding="UTF-8"?>
<svg width="35px" height="35px" viewBox="0 0 35 35" version="1.1" xmlns="http://www.w3.org/2000/svg" xmlns:xlink="http://www.w3.org/1999/xlink">
    <!-- Generator: Sketch 53.2 (72643) - https://sketchapp.com -->
    <title>Artboard</title>
    <desc>Created with Sketch.</desc>
    <g id="Artboard" stroke="none" stroke-width="1" fill="none" fill-rule="evenodd">
        <g id="moon" transform="translate(7.000000, 7.000000)" fill="#FFFFFF" fill-rule="nonzero">
            <path d="M21.5173375,11.898587 C21.2065241,11.7698616 20.864717,11.8674549 20.6668092,12.1412788 C19.8729182,13.2397107 18.8036813,14.1154214 17.5746792,14.6737233 C16.2936981,15.2556394 14.8633753,15.4760545 13.4388637,15.3114004 C9.91222222,14.9035472 7.0566499,12.0478826 6.64888889,8.52124109 C6.48418868,7.09659119 6.70469602,5.66649895 7.28665828,4.38551782 C7.84496017,3.15656184 8.72067086,2.08737107 9.8190566,1.29348008 C10.0928805,1.09552621 10.1904277,0.753719078 10.0617484,0.442951782 C9.93214675,0.129924528 9.61930398,-0.0441844864 9.28316981,0.00968553459 C6.59912369,0.440184486 4.17414256,1.84703145 2.45486792,3.9711153 C0.709257862,6.12780713 -0.154507338,8.84994969 0.0227379455,11.6361551 C0.19163522,14.2910063 1.3362348,16.8047254 3.24580713,18.7143438 C5.15537945,20.6239623 7.66905241,21.7686541 10.3239497,21.9375975 C10.5628595,21.9527715 10.8009853,21.9603354 11.0386499,21.9603354 C13.5725241,21.9602432 16.0173375,21.101413 17.9891279,19.5054675 C20.1132579,17.786239 21.5201509,15.3612117 21.9506499,12.6771195 C22.0045199,12.3410776 21.8304109,12.0281426 21.5173375,11.898587 Z M21.267543,12.5675807 C20.8640713,15.0830063 19.5452243,17.3559245 17.5538784,18.9677358 C15.5324151,20.6038994 12.9806457,21.4138407 10.3678574,21.2471572 C7.88107338,21.088914 5.52545912,20.0157107 3.73501887,18.2252243 C1.94453249,16.4347379 0.871375262,14.0790776 0.713178197,11.5922935 C0.547002096,8.97978197 1.3565283,6.42778197 2.9926457,4.40636478 C4.6044109,2.41506499 6.87732914,1.09621803 9.39275472,0.692746331 C9.39736688,0.692008386 9.40091824,0.691731656 9.40373166,0.691731656 C9.41148008,0.691731656 9.4136478,0.694176101 9.41618449,0.697035639 C9.42430189,0.706352201 9.42614675,0.718851153 9.4251782,0.722079665 C9.42471698,0.723048218 9.42162683,0.727106918 9.41383229,0.732779874 C8.21812998,1.59691405 7.26475052,2.7611153 6.6568218,4.09933333 C6.02292662,5.4946499 5.78254088,7.05120755 5.96172327,8.60066247 C6.40596646,12.4429602 9.51714465,15.5542767 13.3594423,15.998566 C14.9090356,16.1778868 16.4655472,15.9374088 17.8609099,15.3035597 C19.1992201,14.6955388 20.3634214,13.7421593 21.2276017,12.5465031 C21.2332285,12.5387086 21.2372872,12.5356184 21.2382096,12.5352034 C21.2413459,12.5340042 21.2540294,12.5360335 21.2633459,12.5441509 C21.267174,12.5476101 21.2703103,12.5503312 21.267543,12.5675807 Z" id="Shape"></path>
        </g>
    </g>
</svg>