<?xml version="1.0" encoding="UTF-8"?>
<svg width="35px" height="35px" viewBox="0 0 35 35" version="1.1" xmlns="http://www.w3.org/2000/svg" xmlns:xlink="http://www.w3.org/1999/xlink">
    <!-- Generator: Sketch 53.2 (72643) - https://sketchapp.com -->
    <title>Artboard</title>
    <desc>Created with Sketch.</desc>
    <g id="Artboard" stroke="none" stroke-width="1" fill="none" fill-rule="evenodd">
        <g id="Group-2" transform="translate(5.000000, 6.000000)" fill="#FFFFFF" fill-rule="nonzero">
            <path d="M2.03611607,14.8118473 C2.03611607,15.1912672 2.39590179,15.4988702 2.8396875,15.4988702 C3.28347321,15.4988702 3.64325893,15.1912672 3.64325893,14.8118473 L3.64325893,9.44143511 C3.64325893,9.16351145 3.44750893,8.9130687 3.1471875,8.80671756 C2.84708036,8.70045802 2.50133036,8.75917557 2.27150893,8.95566412 L0.235366071,10.6964885 C-0.0784553571,10.9647939 -0.0784553571,11.3998168 0.235366071,11.6680305 C0.5491875,11.9363359 1.05800893,11.9363359 1.37172321,11.6680305 L2.03611607,11.1 L2.03611607,14.8118473 Z" id="Path"></path>
            <path d="M6.78200893,2.91361832 L7.44640179,2.34558779 L7.44640179,6.05743511 C7.44640179,6.43685496 7.8061875,6.74445802 8.24997321,6.74445802 C8.69375893,6.74445802 9.05354464,6.43685496 9.05354464,6.05743511 L9.05354464,0.687022901 C9.05354464,0.409099237 8.85779464,0.158656489 8.55747321,0.0523053435 C8.25736607,-0.0539541985 7.91161607,0.00476335878 7.68179464,0.201251908 L5.64565179,1.94207634 C5.33183036,2.21038168 5.33183036,2.64540458 5.64565179,2.91361832 C5.95947321,3.18192366 6.46829464,3.18192366 6.78200893,2.91361832 Z" id="Path"></path>
            <path d="M15.9465804,8.80671756 C15.6464732,8.70045802 15.3007232,8.75917557 15.0709018,8.95566412 L13.0347589,10.6964885 C12.7209375,10.9647939 12.7209375,11.3998168 13.0347589,11.6680305 C13.3485804,11.9363359 13.8574018,11.9363359 14.1711161,11.6680305 L14.8355089,11.1 L14.8355089,14.8118473 C14.8355089,15.1912672 15.1952946,15.4988702 15.6390804,15.4988702 C16.0828661,15.4988702 16.4426518,15.1912672 16.4426518,14.8118473 L16.4426518,9.44143511 C16.4426518,9.16360305 16.2469018,8.9130687 15.9465804,8.80671756 Z" id="Path"></path>
            <path d="M12.4539375,17.2621374 C12.1538304,17.1558779 11.8080804,17.2145954 11.5782589,17.411084 L9.54211607,19.1519084 C9.22829464,19.4202137 9.22829464,19.8552366 9.54211607,20.1234504 C9.8559375,20.3917557 10.3647589,20.3917557 10.6784732,20.1234504 L11.3428661,19.5554198 L11.3428661,21.5887328 C11.3428661,21.9681527 11.7026518,22.2757557 12.1464375,22.2757557 C12.5902232,22.2757557 12.9500089,21.9681527 12.9500089,21.5887328 L12.9500089,17.896855 C12.9500089,17.6189313 12.7542589,17.3684885 12.4539375,17.2621374 Z" id="Path"></path>
            <path d="M11.0918304,13.1377099 L11.0918304,11.1156641 C11.0918304,9.81370992 9.8529375,8.75450382 8.33011607,8.75450382 L8.29058036,8.75450382 C6.76775893,8.75450382 5.52886607,9.81370992 5.52886607,11.1156641 L5.52886607,13.1377099 C5.52886607,14.4396641 6.76775893,15.4988702 8.29058036,15.4988702 L8.33011607,15.4988702 C9.8529375,15.4988702 11.0918304,14.4396641 11.0918304,13.1377099 Z M9.4846875,13.1377099 C9.4846875,13.6820153 8.96675893,14.1248244 8.33011607,14.1248244 L8.29058036,14.1248244 C7.6539375,14.1248244 7.13600893,13.6820153 7.13600893,13.1377099 L7.13600893,11.1156641 C7.13600893,10.5713588 7.6539375,10.1285496 8.29058036,10.1285496 L8.33011607,10.1285496 C8.96675893,10.1285496 9.4846875,10.5713588 9.4846875,11.1156641 L9.4846875,13.1377099 Z" id="Shape"></path>
            <path d="M21.1890804,8.75441221 L21.1495446,8.75441221 C19.6267232,8.75441221 18.3878304,9.81361832 18.3878304,11.1155725 L18.3878304,13.1376183 C18.3878304,14.4395725 19.6267232,15.4987786 21.1495446,15.4987786 L21.1890804,15.4987786 C22.7119018,15.4987786 23.9507946,14.4395725 23.9507946,13.1376183 L23.9507946,11.1155725 C23.9507946,9.81370992 22.7119018,8.75441221 21.1890804,8.75441221 Z M22.3436518,13.1377099 C22.3436518,13.6820153 21.8257232,14.1248244 21.1890804,14.1248244 L21.1495446,14.1248244 C20.5129018,14.1248244 19.9949732,13.6820153 19.9949732,13.1377099 L19.9949732,11.1156641 C19.9949732,10.5713588 20.5129018,10.1285496 21.1495446,10.1285496 L21.1890804,10.1285496 C21.8257232,10.1285496 22.3436518,10.5713588 22.3436518,11.1156641 L22.3436518,13.1377099 Z" id="Shape"></path>
            <path d="M13.7404018,9.9475983e-14 L13.7008661,9.9475983e-14 C12.1780446,9.9475983e-14 10.9391518,1.05920611 10.9391518,2.36116031 L10.9391518,4.38320611 C10.9391518,5.68516031 12.1780446,6.74436641 13.7008661,6.74436641 L13.7404018,6.74436641 C14.1841875,6.74436641 14.5439732,6.43676336 14.5439732,6.05734351 C14.5439732,5.67792366 14.1841875,5.37032061 13.7404018,5.37032061 L13.7008661,5.37032061 C13.0642232,5.37032061 12.5462946,4.92751145 12.5462946,4.38320611 L12.5462946,2.36116031 C12.5462946,1.81685496 13.0642232,1.3740458 13.7008661,1.3740458 L13.7404018,1.3740458 C14.3770446,1.3740458 14.8949732,1.81685496 14.8949732,2.36116031 C14.8949732,2.74058015 15.2547589,3.04818321 15.6985446,3.04818321 C16.1423304,3.04818321 16.5021161,2.74058015 16.5021161,2.36116031 C16.5022232,1.05920611 15.2633304,9.9475983e-14 13.7404018,9.9475983e-14 Z" id="Path"></path>
            <path d="M21.1890804,9.9475983e-14 L21.1495446,9.9475983e-14 C19.6267232,9.9475983e-14 18.3878304,1.05920611 18.3878304,2.36116031 L18.3878304,4.38320611 C18.3878304,5.68516031 19.6267232,6.74436641 21.1495446,6.74436641 L21.1890804,6.74436641 C22.7119018,6.74436641 23.9507946,5.68516031 23.9507946,4.38320611 L23.9507946,2.36116031 C23.9507946,1.05920611 22.7119018,9.9475983e-14 21.1890804,9.9475983e-14 Z M22.3436518,4.38329771 C22.3436518,4.92760305 21.8257232,5.37041221 21.1890804,5.37041221 L21.1495446,5.37041221 C20.5129018,5.37041221 19.9949732,4.92760305 19.9949732,4.38329771 L19.9949732,2.36116031 C19.9949732,1.81685496 20.5129018,1.3740458 21.1495446,1.3740458 L21.1890804,1.3740458 C21.8257232,1.3740458 22.3436518,1.81685496 22.3436518,2.36116031 L22.3436518,4.38329771 Z" id="Shape"></path>
            <path d="M4.5751875,17.2098321 L4.53565179,17.2098321 C3.01283036,17.2098321 1.7739375,18.2690382 1.7739375,19.5709924 L1.7739375,21.5930382 C1.7739375,22.8949924 3.01283036,23.9541985 4.53565179,23.9541985 L4.5751875,23.9541985 C6.09800893,23.9541985 7.33690179,22.8949924 7.33690179,21.5930382 L7.33690179,19.5709924 C7.33700893,18.2691298 6.09811607,17.2098321 4.5751875,17.2098321 Z M5.72986607,21.5931298 C5.72986607,22.1374351 5.2119375,22.5802443 4.57529464,22.5802443 L4.53575893,22.5802443 C3.89911607,22.5802443 3.3811875,22.1374351 3.3811875,21.5931298 L3.3811875,19.5709924 C3.3811875,19.026687 3.89911607,18.5838779 4.53575893,18.5838779 L4.57529464,18.5838779 C5.2119375,18.5838779 5.72986607,19.026687 5.72986607,19.5709924 L5.72986607,21.5931298 Z" id="Shape"></path>
        </g>
    </g>
</svg>