<?xml version="1.0" encoding="UTF-8"?>
<svg width="35px" height="35px" viewBox="0 0 35 35" version="1.1" xmlns="http://www.w3.org/2000/svg" xmlns:xlink="http://www.w3.org/1999/xlink">
    <!-- Generator: Sketch 53.2 (72643) - https://sketchapp.com -->
    <title>Artboard</title>
    <desc>Created with Sketch.</desc>
    <g id="Artboard" stroke="none" stroke-width="1" fill="none" fill-rule="evenodd">
        <g id="mountains" transform="translate(5.000000, 6.000000)" fill-rule="nonzero">
            <path d="M23.902828,16.6149637 L18.2962038,4.00905699 C18.2293503,3.8587772 18.1004331,3.76520207 17.9603057,3.76520207 C17.8201783,3.76520207 17.6912611,3.8587772 17.6244076,4.00911917 L16.315465,6.95222798 C16.2147771,7.1786114 16.2835669,7.46163731 16.4690955,7.58449741 C16.6546752,7.70741969 16.8865732,7.62335751 16.9872611,7.39703627 L17.9603567,5.20911917 L20.9955159,12.0333264 L19.4627261,13.709658 C19.3055796,13.8815751 19.2923312,14.1763523 19.4332229,14.3681658 C19.5086879,14.470943 19.6130955,14.5232332 19.7179618,14.5232332 C19.8087643,14.5232332 19.8999236,14.4839378 19.9728917,14.4041658 L21.370293,12.8758756 L23.2311338,17.0598342 C23.3003312,17.2155233 23.4317452,17.3038135 23.5673885,17.3038135 C23.6289427,17.3038135 23.691414,17.2855959 23.7492994,17.2472332 C23.9347261,17.1244352 24.0035159,16.841285 23.902828,16.6149637 Z" id="Path" fill="#FFFFFF"></path>
            <path d="M3.97635669,14.4041658 C4.04932484,14.484 4.14048408,14.5232332 4.23128662,14.5232332 C4.33610191,14.5232332 4.44050955,14.4708808 4.51597452,14.3681658 C4.65686624,14.1764145 4.64361783,13.8815751 4.48647134,13.709658 L2.95368153,12.0333264 L5.98884076,5.20911917 L6.96193631,7.39703627 C7.06257325,7.62341969 7.29447134,7.70729534 7.48010191,7.58449741 C7.66557962,7.46163731 7.73436943,7.17854922 7.63368153,6.95222798 L6.3246879,4.00911917 C6.25783439,3.85883938 6.12896815,3.76526425 5.98878981,3.76526425 C5.84861146,3.76526425 5.71974522,3.85883938 5.65289172,4.00911917 L0.0463694268,16.6150259 C-0.0543184713,16.8413472 0.0144713376,17.1244352 0.199949045,17.2472953 C0.25788535,17.285658 0.320305732,17.3038756 0.381910828,17.3038756 C0.51755414,17.3038756 0.648917197,17.2155855 0.718165605,17.0598964 L2.57900637,12.8759378 L3.97635669,14.4041658 Z" id="Path" fill="#FFFFFF"></path>
            <path d="M12.3104713,0.271647668 C12.2436178,0.121367876 12.1147006,0.0277927461 11.9745732,0.0277927461 C11.8344459,0.0277927461 11.7055287,0.121367876 11.6386752,0.271647668 L1.40392357,23.283544 C1.30323567,23.5099275 1.37202548,23.7930155 1.55750318,23.9158135 C1.61543949,23.9541762 1.67785987,23.9723938 1.73946497,23.9723938 C1.87510828,23.9723938 2.00647134,23.8841036 2.07571975,23.7284145 L7.34751592,11.8752746 L9.35332484,14.0691606 C9.49849682,14.2279585 9.71831847,14.2278964 9.86349045,14.0691606 L11.9743694,11.7603109 L14.0855541,14.0692228 C14.1581656,14.1486218 14.2493758,14.1882902 14.3406369,14.1882902 C14.4318981,14.1882902 14.5231083,14.1486218 14.5957197,14.0692228 L16.6017325,11.8753368 L21.8735796,23.7285389 C21.9742675,23.9548601 22.2061656,24.0387979 22.3917452,23.9159378 C22.5772739,23.7930777 22.6460127,23.5099896 22.5453758,23.2836684 L12.3104713,0.271647668 Z M14.340586,13.0956684 L12.2293503,10.7867565 C12.0842293,10.6279585 11.8644076,10.6280207 11.7191847,10.7867565 L9.60835669,13.0956062 L7.72224204,11.0326632 L11.9745732,1.47170984 L16.2269045,11.0326632 L14.340586,13.0956684 Z" id="Shape" fill="#FFFFFF"></path>
            <path d="M16.0953376,17.6741347 C15.8705732,17.6741347 15.6876943,17.897285 15.6876943,18.171544 C15.6876943,18.4458031 15.8705732,18.6689534 16.0953376,18.6689534 C16.3201019,18.6689534 16.5029809,18.4458031 16.5029809,18.171544 C16.5029809,17.897285 16.3201529,17.6741347 16.0953376,17.6741347 Z" id="Path" fill="#000000"></path>
            <path d="M7.20412739,20.3968912 C6.97936306,20.3968912 6.79648408,20.6200415 6.79648408,20.8943005 C6.79648408,21.1685596 6.97936306,21.3917098 7.20412739,21.3917098 C7.42889172,21.3917098 7.6117707,21.1685596 7.6117707,20.8943005 C7.6117707,20.6200415 7.42889172,20.3968912 7.20412739,20.3968912 Z" id="Path" fill="#000000"></path>
            <path d="M17.4408153,19.1773679 C17.216051,19.1773679 17.033172,19.4005181 17.033172,19.6747772 C17.033172,19.9490363 17.216051,20.1721865 17.4408153,20.1721865 C17.6655796,20.1721865 17.8484586,19.9490363 17.8484586,19.6747772 C17.8484586,19.4005181 17.6655796,19.1773679 17.4408153,19.1773679 Z" id="Path" fill="#000000"></path>
        </g>
    </g>
</svg>