<?xml version="1.0" encoding="UTF-8"?>
<svg width="60px" height="60px" viewBox="0 0 60 60" version="1.1" xmlns="http://www.w3.org/2000/svg" xmlns:xlink="http://www.w3.org/1999/xlink">
    <!-- Generator: Sketch 53.2 (72643) - https://sketchapp.com -->
    <title>Artboard</title>
    <desc>Created with Sketch.</desc>
    <g id="Artboard" stroke="none" stroke-width="1" fill="none" fill-rule="evenodd">
        <g id="Group-2" transform="translate(7.000000, 8.000000)" fill="#FFFFFF" fill-rule="nonzero">
            <path d="M3.81771763,27.7722137 C3.81771763,28.483626 4.49231585,29.0603817 5.32441406,29.0603817 C6.15651228,29.0603817 6.83111049,28.483626 6.83111049,27.7722137 L6.83111049,17.7026908 C6.83111049,17.181584 6.46407924,16.7120038 5.90097656,16.5125954 C5.33827567,16.3133588 4.68999442,16.4234542 4.25907924,16.7918702 L0.441311384,20.055916 C-0.147103795,20.5589885 -0.147103795,21.3746565 0.441311384,21.8775573 C1.02972656,22.3806298 1.98376674,22.3806298 2.57198103,21.8775573 L3.81771763,20.8125 L3.81771763,27.7722137 Z" id="Path"></path>
            <path d="M12.7162667,5.46303435 L13.9620033,4.3979771 L13.9620033,11.3576908 C13.9620033,12.0691031 14.6366016,12.6458588 15.4686998,12.6458588 C16.300798,12.6458588 16.9753962,12.0691031 16.9753962,11.3576908 L16.9753962,1.28816794 C16.9753962,0.767061069 16.608365,0.297480916 16.0452623,0.0980725191 C15.4825614,-0.101164122 14.8342801,0.00893129771 14.403365,0.377347328 L10.5855971,3.64139313 C9.99718192,4.14446565 9.99718192,4.96013359 10.5855971,5.46303435 C11.1740123,5.96610687 12.1280525,5.96610687 12.7162667,5.46303435 Z" id="Path"></path>
            <path d="M29.8998382,16.5125954 C29.3371373,16.3133588 28.688856,16.4234542 28.2579408,16.7918702 L24.440173,20.055916 C23.8517578,20.5589885 23.8517578,21.3746565 24.440173,21.8775573 C25.0285882,22.3806298 25.9826283,22.3806298 26.5708426,21.8775573 L27.8165792,20.8125 L27.8165792,27.7722137 C27.8165792,28.483626 28.4911775,29.0603817 29.3232757,29.0603817 C30.1553739,29.0603817 30.8299721,28.483626 30.8299721,27.7722137 L30.8299721,17.7026908 C30.8299721,17.1817557 30.4629408,16.7120038 29.8998382,16.5125954 Z" id="Path"></path>
            <path d="M23.3511328,32.3665076 C22.7884319,32.167271 22.1401507,32.2773664 21.7092355,32.6457824 L17.8914676,35.9098282 C17.3030525,36.4129008 17.3030525,37.2285687 17.8914676,37.7314695 C18.4798828,38.234542 19.433923,38.234542 20.0221373,37.7314695 L21.2678739,36.6664122 L21.2678739,40.478874 C21.2678739,41.1902863 21.9424721,41.767042 22.7745703,41.767042 C23.6066685,41.767042 24.2812667,41.1902863 24.2812667,40.478874 L24.2812667,33.5566031 C24.2812667,33.0354962 23.9142355,32.565916 23.3511328,32.3665076 Z" id="Path"></path>
            <path d="M20.7971819,24.6332061 L20.7971819,20.8418702 C20.7971819,18.4007061 18.4742578,16.4146947 15.6189676,16.4146947 L15.5448382,16.4146947 C12.689548,16.4146947 10.3666239,18.4007061 10.3666239,20.8418702 L10.3666239,24.6332061 C10.3666239,27.0743702 12.689548,29.0603817 15.5448382,29.0603817 L15.6189676,29.0603817 C18.4742578,29.0603817 20.7971819,27.0743702 20.7971819,24.6332061 Z M17.7837891,24.6332061 C17.7837891,25.6537786 16.812673,26.4840458 15.6189676,26.4840458 L15.5448382,26.4840458 C14.3511328,26.4840458 13.3800167,25.6537786 13.3800167,24.6332061 L13.3800167,20.8418702 C13.3800167,19.8212977 14.3511328,18.9910305 15.5448382,18.9910305 L15.6189676,18.9910305 C16.812673,18.9910305 17.7837891,19.8212977 17.7837891,20.8418702 L17.7837891,24.6332061 Z" id="Shape"></path>
            <path d="M39.7295257,16.4145229 L39.6553962,16.4145229 C36.800106,16.4145229 34.4771819,18.4005344 34.4771819,20.8416985 L34.4771819,24.6330344 C34.4771819,27.0741985 36.800106,29.0602099 39.6553962,29.0602099 L39.7295257,29.0602099 C42.5848158,29.0602099 44.90774,27.0741985 44.90774,24.6330344 L44.90774,20.8416985 C44.90774,18.4007061 42.5848158,16.4145229 39.7295257,16.4145229 Z M41.8943471,24.6332061 C41.8943471,25.6537786 40.923231,26.4840458 39.7295257,26.4840458 L39.6553962,26.4840458 C38.4616908,26.4840458 37.4905748,25.6537786 37.4905748,24.6332061 L37.4905748,20.8418702 C37.4905748,19.8212977 38.4616908,18.9910305 39.6553962,18.9910305 L39.7295257,18.9910305 C40.923231,18.9910305 41.8943471,19.8212977 41.8943471,20.8418702 L41.8943471,24.6332061 Z" id="Shape"></path>
            <path d="M25.7632533,9.9475983e-14 L25.6891239,9.9475983e-14 C22.8338337,9.9475983e-14 20.5109096,1.98601145 20.5109096,4.42717557 L20.5109096,8.21851145 C20.5109096,10.6596756 22.8338337,12.645687 25.6891239,12.645687 L25.7632533,12.645687 C26.5953516,12.645687 27.2699498,12.0689313 27.2699498,11.3575191 C27.2699498,10.6461069 26.5953516,10.0693511 25.7632533,10.0693511 L25.6891239,10.0693511 C24.4954185,10.0693511 23.5243025,9.23908397 23.5243025,8.21851145 L23.5243025,4.42717557 C23.5243025,3.40660305 24.4954185,2.57633588 25.6891239,2.57633588 L25.7632533,2.57633588 C26.9569587,2.57633588 27.9280748,3.40660305 27.9280748,4.42717557 C27.9280748,5.13858779 28.602673,5.71534351 29.4347712,5.71534351 C30.2668694,5.71534351 30.9414676,5.13858779 30.9414676,4.42717557 C30.9416685,1.98601145 28.6187444,9.9475983e-14 25.7632533,9.9475983e-14 Z" id="Path"></path>
            <path d="M39.7295257,9.9475983e-14 L39.6553962,9.9475983e-14 C36.800106,9.9475983e-14 34.4771819,1.98601145 34.4771819,4.42717557 L34.4771819,8.21851145 C34.4771819,10.6596756 36.800106,12.645687 39.6553962,12.645687 L39.7295257,12.645687 C42.5848158,12.645687 44.90774,10.6596756 44.90774,8.21851145 L44.90774,4.42717557 C44.90774,1.98601145 42.5848158,9.9475983e-14 39.7295257,9.9475983e-14 Z M41.8943471,8.21868321 C41.8943471,9.23925573 40.923231,10.0695229 39.7295257,10.0695229 L39.6553962,10.0695229 C38.4616908,10.0695229 37.4905748,9.23925573 37.4905748,8.21868321 L37.4905748,4.42717557 C37.4905748,3.40660305 38.4616908,2.57633588 39.6553962,2.57633588 L39.7295257,2.57633588 C40.923231,2.57633588 41.8943471,3.40660305 41.8943471,4.42717557 L41.8943471,8.21868321 Z" id="Shape"></path>
            <path d="M8.57847656,32.2684351 L8.5043471,32.2684351 C5.64905692,32.2684351 3.32613281,34.2544466 3.32613281,36.6956107 L3.32613281,40.4869466 C3.32613281,42.9281107 5.64905692,44.9141221 8.5043471,44.9141221 L8.57847656,44.9141221 C11.4337667,44.9141221 13.7566908,42.9281107 13.7566908,40.4869466 L13.7566908,36.6956107 C13.7568917,34.2546183 11.4339676,32.2684351 8.57847656,32.2684351 Z M10.7434989,40.4871183 C10.7434989,41.5076908 9.77238281,42.337958 8.57867746,42.337958 L8.50454799,42.337958 C7.31084263,42.337958 6.33972656,41.5076908 6.33972656,40.4871183 L6.33972656,36.6956107 C6.33972656,35.6750382 7.31084263,34.844771 8.50454799,34.844771 L8.57867746,34.844771 C9.77238281,34.844771 10.7434989,35.6750382 10.7434989,36.6956107 L10.7434989,40.4871183 Z" id="Shape"></path>
        </g>
    </g>
</svg>