<?xml version="1.0" encoding="UTF-8"?>
<svg width="60px" height="60px" viewBox="0 0 60 60" version="1.1" xmlns="http://www.w3.org/2000/svg" xmlns:xlink="http://www.w3.org/1999/xlink">
    <!-- Generator: Sketch 53.2 (72643) - https://sketchapp.com -->
    <title>Artboard</title>
    <desc>Created with Sketch.</desc>
    <g id="Artboard" stroke="none" stroke-width="1" fill="none" fill-rule="evenodd">
        <g id="sun-day-weather-symbol-(1)" transform="translate(5.000000, 5.000000)" fill="#FFFFFF" fill-rule="nonzero">
            <path d="M6.25,23.4375 L1.5625,23.4375 C0.7,23.4375 0,24.1375 0,25 C0,25.8625 0.7,26.5625 1.5625,26.5625 L6.25,26.5625 C7.1125,26.5625 7.8125,25.8625 7.8125,25 C7.8125,24.1375 7.1125,23.4375 6.25,23.4375 Z M25,7.8125 C25.8625,7.8125 26.5625,7.1125 26.5625,6.25 L26.5625,1.5625 C26.5625,0.7 25.8625,0 25,0 C24.1375,0 23.4375,0.7 23.4375,1.5625 L23.4375,6.25 C23.4375,7.1125 24.1375,7.8125 25,7.8125 Z M40.0328431,12.1562092 L43.3156863,8.87336601 C43.9203431,8.26870915 43.9203431,7.28897059 43.3156863,6.68431373 C42.7110294,6.07965686 41.7312092,6.07965686 41.1265523,6.68431373 L37.8437092,9.96715686 C37.2390523,10.5718137 37.2390523,11.5515523 37.8437092,12.1562092 C38.4484477,12.7609477 39.4281863,12.7609477 40.0328431,12.1562092 Z M11.5781046,36.2343954 L8.29526144,39.5172386 C7.69060458,40.1218954 7.69060458,41.101634 8.29526144,41.7062908 C8.8999183,42.3109477 9.87965686,42.3109477 10.4843137,41.7062908 L13.7671569,38.4234477 C14.3718137,37.8187908 14.3718137,36.8390523 13.7671569,36.2343954 C13.1625,35.6297386 12.1828431,35.6296569 11.5781046,36.2343954 Z M10.6375,12.8468954 C11.2484477,13.4578431 12.2375,13.4578431 12.8468137,12.8468954 C13.4562092,12.2359477 13.4562092,11.2468954 12.8468137,10.6375817 L9.53284314,7.32189542 C8.92189542,6.71094771 7.93284314,6.71094771 7.32344771,7.32189542 C6.7125,7.93284314 6.7125,8.92189542 7.32344771,9.53129085 L10.6375,12.8468954 Z M25,42.1875 C24.1375,42.1875 23.4375,42.8875 23.4375,43.75 L23.4375,48.4375 C23.4375,49.3 24.1375,50 25,50 C25.8625,50 26.5625,49.3 26.5625,48.4375 L26.5625,43.75 C26.5625,42.8875 25.8625,42.1875 25,42.1875 Z M39.3625,37.1531046 C38.7515523,36.5421569 37.7625,36.5421569 37.1531046,37.1531046 C36.5421569,37.764134 36.5421569,38.7531046 37.1531046,39.3625 L40.4671569,42.6765523 C41.0781046,43.2875 42.0671569,43.2875 42.6765523,42.6765523 C43.2859477,42.0655229 43.2875,41.0765523 42.6765523,40.4671569 L39.3625,37.1531046 Z M48.4375,23.4375 L43.75,23.4375 C42.8875,23.4375 42.1875,24.1375 42.1875,25 C42.1875,25.8625 42.8875,26.5625 43.75,26.5625 L48.4375,26.5625 C49.3,26.5625 50,25.8625 50,25 C50,24.1375 49.3,23.4375 48.4375,23.4375 Z M25,10.9281046 C17.2281046,10.9281046 10.9281046,17.2281046 10.9281046,25 C10.9281046,32.7718954 17.2281046,39.0718954 25,39.0718954 C32.7718954,39.0718954 39.0718954,32.7718954 39.0718954,25 C39.0718954,17.2281046 32.7718954,10.9281046 25,10.9281046 Z M25,35.9343954 C18.9609477,35.9343954 14.0656046,31.0390523 14.0656046,25 C14.0656046,18.9609477 18.9609477,14.0656046 25,14.0656046 C31.0390523,14.0656046 35.9343954,18.9609477 35.9343954,25 C35.9343954,31.0390523 31.0390523,35.9343954 25,35.9343954 Z" id="Shape"></path>
        </g>
    </g>
</svg>