<?xml version="1.0" encoding="UTF-8"?>
<svg width="60px" height="60px" viewBox="0 0 60 60" version="1.1" xmlns="http://www.w3.org/2000/svg" xmlns:xlink="http://www.w3.org/1999/xlink">
    <!-- Generator: Sketch 53.2 (72643) - https://sketchapp.com -->
    <title>Artboard</title>
    <desc>Created with Sketch.</desc>
    <g id="Artboard" stroke="none" stroke-width="1" fill="none" fill-rule="evenodd">
        <g id="moon" transform="translate(9.000000, 10.000000)" fill="#FFFFFF" fill-rule="nonzero">
            <path d="M40.1004927,22.1746394 C39.5212495,21.9347421 38.8842453,22.1166205 38.5154172,22.6269287 C37.0358931,24.6740063 35.0432243,26.3060126 32.7528113,27.3464843 C30.3655283,28.4309644 27.6999266,28.8417379 25.0451551,28.5348826 C18.4727778,27.7747925 13.1510294,22.4528721 12.3911111,15.8804948 C12.0841698,13.2254654 12.4951153,10.5602935 13.5796813,8.17301048 C14.620153,5.88268344 16.2521593,3.89010063 18.2991509,2.41057652 C18.8094591,2.04166247 18.9912516,1.40465828 18.7514403,0.825501048 C18.5099099,0.242132075 17.9268847,-0.0823438155 17.3004528,0.0180503145 C12.2983669,0.820343816 7.77908386,3.44219497 4.57498113,7.40071488 C1.32179874,11.4200042 -0.287945493,16.4930881 0.0423752621,21.6855618 C0.357138365,26.633239 2.49025577,31.3178973 6.04900419,34.8767317 C9.60775262,38.435566 14.2923249,40.5688553 19.2400881,40.8837044 C19.6853291,40.9119832 20.129109,40.9260797 20.5720294,40.9260797 C25.2942495,40.9259078 29.8504927,39.3253606 33.5251929,36.3510985 C37.4837987,33.1470818 40.1057358,28.6277128 40.9080294,23.6255409 C41.0084235,22.9992809 40.6839476,22.4160839 40.1004927,22.1746394 Z M39.6349665,23.4214004 C38.8830419,28.109239 36.4251908,32.3451321 32.7140461,35.3489623 C28.9467736,38.3981761 24.1912034,39.9076122 19.3219161,39.5969748 C14.6874549,39.3020671 10.2974465,37.3020063 6.96071698,33.9651908 C3.62390147,30.6283753 1.62392662,26.2382809 1.32910482,21.6038197 C1.019413,16.7350482 2.52807547,11.9790482 5.57720335,8.21186164 C8.58094759,4.50080294 12.8168407,2.04295178 17.5046792,1.29102725 C17.5132746,1.28965199 17.5198931,1.28913627 17.5251363,1.28913627 C17.5395765,1.28913627 17.5436164,1.29369182 17.5483438,1.29902096 C17.5634717,1.31638365 17.5669099,1.33967715 17.5651048,1.34569392 C17.5642453,1.34749895 17.5584864,1.35506289 17.5439602,1.36563522 C15.3156059,2.97606709 13.5388532,5.14571488 12.4058952,7.63966667 C11.2245451,10.2400294 10.7765535,13.1408868 11.1104843,16.0285073 C11.938392,23.189153 17.7364969,28.9875157 24.8971426,29.8155094 C27.785021,30.1496981 30.6857925,29.7015346 33.2862411,28.5202704 C35.7803648,27.3871405 37.9500126,25.6103878 39.5605304,23.3821195 C39.5710168,23.3675933 39.5785807,23.3618344 39.5802998,23.3610608 C39.5861447,23.358826 39.609782,23.362608 39.6271447,23.3777358 C39.6342788,23.3841824 39.6401237,23.3892537 39.6349665,23.4214004 Z" id="Shape"></path>
        </g>
    </g>
</svg>